<?xml version="1.0" encoding="UTF-8" standalone="no"?>
<!-- Created with Inkscape (http://www.inkscape.org/) -->

<svg
   xmlns:dc="http://purl.org/dc/elements/1.1/"
   xmlns:cc="http://creativecommons.org/ns#"
   xmlns:rdf="http://www.w3.org/1999/02/22-rdf-syntax-ns#"
   xmlns:svg="http://www.w3.org/2000/svg"
   xmlns="http://www.w3.org/2000/svg"
   xmlns:sodipodi="http://sodipodi.sourceforge.net/DTD/sodipodi-0.dtd"
   xmlns:inkscape="http://www.inkscape.org/namespaces/inkscape"
   id="svg3159"
   version="1.1"
   inkscape:version="0.48.4 r9939"
   width="12800"
   height="2000"
   sodipodi:docname="aerofoil.svg">
  <metadata
     id="metadata3165">
    <rdf:RDF>
      <cc:Work
         rdf:about="">
        <dc:format>image/svg+xml</dc:format>
        <dc:type
           rdf:resource="http://purl.org/dc/dcmitype/StillImage" />
      </cc:Work>
    </rdf:RDF>
  </metadata>
  <defs
     id="defs3163" />
  <sodipodi:namedview
     pagecolor="#ffffff"
     bordercolor="#666666"
     borderopacity="1"
     objecttolerance="10"
     gridtolerance="10"
     guidetolerance="10"
     inkscape:pageopacity="0"
     inkscape:pageshadow="2"
     inkscape:window-width="681"
     inkscape:window-height="372"
     id="namedview3161"
     showgrid="false"
     inkscape:zoom="0.056568542"
     inkscape:cx="2990.3293"
     inkscape:cy="2032.0288"
     inkscape:window-x="0"
     inkscape:window-y="394"
     inkscape:window-maximized="0"
     inkscape:current-layer="svg3159" />
  <path
     style="fill:#000000;stroke:none;stroke-width:10;stroke-miterlimit:4;stroke-opacity:1;stroke-dasharray:none;fill-opacity:1"
     d="m 510.49576,1994.3125 c -3.3,-0.1701 -13.2,-1.0099 -22,-1.8662 -133.9244,-13.032 -272.8904,-76.5544 -367.23644,-167.8665 C 45.332287,1751.0944 5.0179673,1665.9366 5.0000073,1579 c -0.007,-32.1316 4.99617,-60.4285 17.4980997,-98.973 54.03005,-166.5792 139.517863,-316.4329 261.627263,-458.613 47.39249,-55.18222 113.19116,-121.01442 170.78601,-170.87312 146.01641,-126.4033 315.66836,-235.9358 521.58438,-336.7507 417.48644,-204.3982 960.08164,-355.0485 1592.99994,-442.2929 323.6739,-44.6166 690.0981,-72.5863 949.5,-72.4765 35.475,0.015 93.525,-0.7112 129,-1.6139 82.2156,-2.0921 320.0284,-2.4532 407.5,-0.6188 183.7691,3.8539 347.6932,10.7209 519,21.7418 808.7308,52.029 1671.6922,190.4379 2671.5,428.4772 495.0344,117.8602 1013.1841,256.1744 1747.5,466.4752 150.6553,43.1462 276.2328,79.3662 660,190.36232 820.8103,237.401 1227.5923,350.0985 1666.1193,461.5924 194.913,49.5558 455.995,112.1444 562.881,134.9378 136.781,29.1686 356.376,68.1836 625,111.0423 104.26,16.6345 292.524,45.5829 296.446,45.5829 0.728,0 1.054,21.3152 1.054,69 l 0,69 -6144.2503,-0.1891 c -3379.3375,-0.104 -6146.94994,-0.3283 -6150.24994,-0.4984 z"
     id="path3169"
     inkscape:connector-curvature="0" />
</svg>
